<svg viewBox="0 0 64 64" xmlns="http://www.w3.org/2000/svg"><g fill="#ff5a79"><path d="m57.2 22.1c-5.5-14.8-23.5-8.2-25.2-.8-2.3-7.9-19.8-13.8-25.2.8-6 16.2 23.1 30.7 25.2 33.1 2.1-1.9 31.2-17.2 25.2-33.1"/><path d="m60 18.5c-.6-1.9-1.6-3.6-3-5-1.3-1.4-3-2.5-4.7-3.2-.9-.4-1.8-.6-2.7-.8-.5-.1-.9-.1-1.4-.2h-1.4l1.2.6 1.2.6c.8.4 1.6.8 2.3 1.3 1.5.9 2.8 2 4 3.2s2.1 2.6 3 4.2c.4.8.8 1.6 1.1 2.4.2.4.3.9.5 1.3l.5 1.3c.1-.5.1-1 .1-1.4 0-.5 0-1-.1-1.4-.1-1-.3-2-.6-2.9m2-2.7c-.1-.7-.2-1.4-.4-2.1-.4-1.4-1.2-2.7-2.2-3.8s-2.2-1.9-3.5-2.3c-.7-.2-1.3-.4-2-.5-.3 0-.7-.1-1-.1s-.7 0-1 .1c.3.2.6.3.9.5.2.1.5.3.8.4.6.3 1.1.6 1.6 1 1 .7 2 1.5 2.8 2.3.8.9 1.5 1.9 2.2 3 .3.5.6 1.1.9 1.7.1.3.3.6.4.9s.3.6.4 1c.1-.4.1-.7.1-1.1zm-57.7 5.8c.3-.8.7-1.7 1.1-2.4.8-1.6 1.8-3 3-4.2s2.5-2.3 4-3.2c.7-.5 1.5-.9 2.3-1.3l1.2-.6 1.2-.6h-1.4c-.5 0-.9.1-1.4.2-.9.2-1.8.4-2.7.8-1.7.7-3.3 1.8-4.6 3.2s-2.4 3.1-3 5c-.3.9-.5 1.9-.6 2.8-.1.5-.1 1-.1 1.4 0 .5 0 1 .1 1.4l.5-1.3c.1-.4.2-.8.4-1.2m1.7-10.2c.8-.9 1.8-1.7 2.8-2.4.5-.3 1.1-.7 1.6-1 .3-.2.6-.3.9-.5s.6-.3.9-.5c-.3 0-.7-.1-1-.1s-.7 0-1 .1c-.7.1-1.3.3-2 .5-1.4.6-2.6 1.4-3.6 2.4-1 1.1-1.8 2.4-2.2 3.8-.2.7-.3 1.4-.4 2.1v1.1c0 .4 0 .7.1 1.1.1-.3.3-.6.4-1 .2-.4.3-.7.5-1 .3-.6.6-1.2.9-1.7.6-1.1 1.3-2.1 2.1-2.9m1.8 29.1-.1.2c.5 1.5 1.3 2.7 2.1 3.9s1.8 2.2 2.8 3.1 2.1 1.8 3.3 2.6 2.5 1.4 4 1.8l.1-.2c-2-2-4-3.9-6-5.8-2.1-1.8-4.1-3.8-6.2-5.6m-4.2 3-.1.2c.7 1.7 1.6 3.1 2.6 4.4s2.1 2.5 3.3 3.6 2.4 2.1 3.8 3.1c1.4.9 2.8 1.8 4.5 2.3l.1-.2c-2.3-2.3-4.7-4.5-7-6.8-2.4-2.2-4.8-4.5-7.2-6.6m47.9 4.2c1-1 2-2 2.8-3.1s1.6-2.4 2.1-3.9l-.1-.2c-2.1 1.8-4.1 3.8-6.2 5.6-2 1.9-4 3.8-6 5.8l.1.2c1.5-.4 2.8-1.1 4-1.8 1.2-.8 2.2-1.7 3.3-2.6m1.7 2.4c-2.3 2.3-4.7 4.5-7 6.8l.1.2c1.7-.6 3.1-1.4 4.5-2.3s2.6-1.9 3.8-3.1c1.2-1.1 2.3-2.3 3.3-3.6s1.9-2.7 2.6-4.4l-.1-.2c-2.4 2.1-4.8 4.4-7.2 6.6"/></g></svg>
